HIERARCHY
ROOT Hips
{
    OFFSET 0.000000 97.120003 0.000000
    CHANNELS 6 Xposition Yposition Zposition Yrotation Xrotation Zrotation
    JOINT RightUpLeg
    {
        OFFSET -10.000000 -0.000000 0.000000
        CHANNELS 3 Yrotation Xrotation Zrotation
        JOINT RightLeg
        {
            OFFSET 0.000000 -45.062000 0.000000
            CHANNELS 3 Yrotation Xrotation Zrotation
            JOINT RightFoot
            {
                OFFSET 0.000000 -42.057999 0.000000
                CHANNELS 3 Yrotation Xrotation Zrotation
                End Site
                {
                    OFFSET 0.000000 -10.000000 15.120000
                }
            }
        }
    }
    JOINT LeftUpLeg
    {
        OFFSET 10.000000 -0.000000 0.000000
        CHANNELS 3 Yrotation Xrotation Zrotation
        JOINT LeftLeg
        {
            OFFSET 0.000000 -45.062000 0.000000
            CHANNELS 3 Yrotation Xrotation Zrotation
            JOINT LeftFoot
            {
                OFFSET 0.000000 -42.057999 0.000000
                CHANNELS 3 Yrotation Xrotation Zrotation
                End Site
                {
                    OFFSET 0.000000 -10.000000 15.120000
                }
            }
        }
    }
    JOINT Spine
    {
        OFFSET 0.000000 7.000000 0.000000
        CHANNELS 3 Yrotation Xrotation Zrotation
        JOINT Spine1
        {
            OFFSET 0.000000 15.500000 0.000000
            CHANNELS 3 Yrotation Xrotation Zrotation
            JOINT Spine2
            {
                OFFSET 0.000000 11.000000 0.000000
                CHANNELS 3 Yrotation Xrotation Zrotation
                JOINT Neck
                {
                    OFFSET 0.000000 16.500000 0.000000
                    CHANNELS 3 Yrotation Xrotation Zrotation
                    JOINT Neck1
                    {
                        OFFSET 0.000000 3.500000 0.000000
                        CHANNELS 3 Yrotation Xrotation Zrotation
                        JOINT Head
                        {
                            OFFSET 0.000000 3.500000 0.000000
                            CHANNELS 3 Yrotation Xrotation Zrotation
                            End Site
                            {
                                OFFSET 0.000000 21.000000 0.000000
                            }
                        }
                    }
                }
                JOINT RightShoulder
                {
                    OFFSET -2.500000 11.500000 0.000000
                    CHANNELS 3 Yrotation Xrotation Zrotation
                    JOINT RightArm
                    {
                        OFFSET -17.500000 0.000000 0.000000
                        CHANNELS 3 Yrotation Xrotation Zrotation
                        JOINT RightForeArm
                        {
                            OFFSET -28.000000 0.000000 0.000000
                            CHANNELS 3 Yrotation Xrotation Zrotation
                            JOINT RightHand
                            {
                                OFFSET -25.000000 0.000000 0.000000
                                CHANNELS 3 Yrotation Xrotation Zrotation
                                JOINT RightHandThumb1
                                {
                                    OFFSET -2.105000 -0.526000 2.737000
                                    CHANNELS 3 Yrotation Xrotation Zrotation
                                    JOINT RightHandThumb2
                                    {
                                        OFFSET -4.208000 0.000000 0.000000
                                        CHANNELS 3 Yrotation Xrotation Zrotation
                                        JOINT RightHandThumb3
                                        {
                                            OFFSET -2.924000 0.000000 0.000000
                                            CHANNELS 3 Yrotation Xrotation Zrotation
                                            End Site
                                            {
                                                OFFSET -2.758000 0.000000 0.000000
                                            }
                                        }
                                    }
                                }
                                JOINT RightInHandIndex
                                {
                                    OFFSET -3.684000 0.581000 2.261000
                                    CHANNELS 3 Yrotation Xrotation Zrotation
                                    JOINT RightHandIndex1
                                    {
                                        OFFSET -5.962000 -0.104000 1.142000
                                        CHANNELS 3 Yrotation Xrotation Zrotation
                                        JOINT RightHandIndex2
                                        {
                                            OFFSET -4.137000 0.000000 0.000000
                                            CHANNELS 3 Yrotation Xrotation Zrotation
                                            JOINT RightHandIndex3
                                            {
                                                OFFSET -2.345000 0.000000 0.000000
                                                CHANNELS 3 Yrotation Xrotation Zrotation
                                                End Site
                                                {
                                                    OFFSET -2.063000 0.000000 0.000000
                                                }
                                            }
                                        }
                                    }
                                }
                                JOINT RightInHandMiddle
                                {
                                    OFFSET -3.865000 0.592000 0.865000
                                    CHANNELS 3 Yrotation Xrotation Zrotation
                                    JOINT RightHandMiddle1
                                    {
                                        OFFSET -5.914000 -0.096000 0.359000
                                        CHANNELS 3 Yrotation Xrotation Zrotation
                                        JOINT RightHandMiddle2
                                        {
                                            OFFSET -4.514000 0.000000 0.000000
                                            CHANNELS 3 Yrotation Xrotation Zrotation
                                            JOINT RightHandMiddle3
                                            {
                                                OFFSET -2.829000 0.000000 0.000000
                                                CHANNELS 3 Yrotation Xrotation Zrotation
                                                End Site
                                                {
                                                    OFFSET -2.257000 0.000000 0.000000
                                                }
                                            }
                                        }
                                    }
                                }
                                JOINT RightInHandRing
                                {
                                    OFFSET -3.846000 0.615000 -0.147000
                                    CHANNELS 3 Yrotation Xrotation Zrotation
                                    JOINT RightHandRing1
                                    {
                                        OFFSET -5.297000 -0.025000 -0.547000
                                        CHANNELS 3 Yrotation Xrotation Zrotation
                                        JOINT RightHandRing2
                                        {
                                            OFFSET -3.934000 0.000000 0.000000
                                            CHANNELS 3 Yrotation Xrotation Zrotation
                                            JOINT RightHandRing3
                                            {
                                                OFFSET -2.729000 0.000000 0.000000
                                                CHANNELS 3 Yrotation Xrotation Zrotation
                                                End Site
                                                {
                                                    OFFSET -2.122000 0.000000 0.000000
                                                }
                                            }
                                        }
                                    }
                                }
                                JOINT RightInHandPinky
                                {
                                    OFFSET -3.613000 0.537000 -1.374000
                                    CHANNELS 3 Yrotation Xrotation Zrotation
                                    JOINT RightHandPinky1
                                    {
                                        OFFSET -4.733000 -0.025000 -1.246000
                                        CHANNELS 3 Yrotation Xrotation Zrotation
                                        JOINT RightHandPinky2
                                        {
                                            OFFSET -3.151000 0.000000 0.000000
                                            CHANNELS 3 Yrotation Xrotation Zrotation
                                            JOINT RightHandPinky3
                                            {
                                                OFFSET -1.991000 0.000000 0.000000
                                                CHANNELS 3 Yrotation Xrotation Zrotation
                                                End Site
                                                {
                                                    OFFSET -1.880000 0.000000 0.000000
                                                }
                                            }
                                        }
                                    }
                                }
                            }
                        }
                    }
                }
                JOINT LeftShoulder
                {
                    OFFSET 2.500000 11.500000 0.000000
                    CHANNELS 3 Yrotation Xrotation Zrotation
                    JOINT LeftArm
                    {
                        OFFSET 17.500000 0.000000 0.000000
                        CHANNELS 3 Yrotation Xrotation Zrotation
                        JOINT LeftForeArm
                        {
                            OFFSET 28.000000 0.000000 0.000000
                            CHANNELS 3 Yrotation Xrotation Zrotation
                            JOINT LeftHand
                            {
                                OFFSET 25.000000 0.000000 0.000000
                                CHANNELS 3 Yrotation Xrotation Zrotation
                                JOINT LeftHandThumb1
                                {
                                    OFFSET 2.105000 -0.526000 2.737000
                                    CHANNELS 3 Yrotation Xrotation Zrotation
                                    JOINT LeftHandThumb2
                                    {
                                        OFFSET 4.208000 0.000000 0.000000
                                        CHANNELS 3 Yrotation Xrotation Zrotation
                                        JOINT LeftHandThumb3
                                        {
                                            OFFSET 2.924000 0.000000 0.000000
                                            CHANNELS 3 Yrotation Xrotation Zrotation
                                            End Site
                                            {
                                                OFFSET 2.758000 0.000000 0.000000
                                            }
                                        }
                                    }
                                }
                                JOINT LeftInHandIndex
                                {
                                    OFFSET 3.684000 0.581000 2.261000
                                    CHANNELS 3 Yrotation Xrotation Zrotation
                                    JOINT LeftHandIndex1
                                    {
                                        OFFSET 5.962000 -0.104000 1.142000
                                        CHANNELS 3 Yrotation Xrotation Zrotation
                                        JOINT LeftHandIndex2
                                        {
                                            OFFSET 4.137000 0.000000 0.000000
                                            CHANNELS 3 Yrotation Xrotation Zrotation
                                            JOINT LeftHandIndex3
                                            {
                                                OFFSET 2.345000 0.000000 0.000000
                                                CHANNELS 3 Yrotation Xrotation Zrotation
                                                End Site
                                                {
                                                    OFFSET 2.063000 0.000000 0.000000
                                                }
                                            }
                                        }
                                    }
                                }
                                JOINT LeftInHandMiddle
                                {
                                    OFFSET 3.865000 0.592000 0.865000
                                    CHANNELS 3 Yrotation Xrotation Zrotation
                                    JOINT LeftHandMiddle1
                                    {
                                        OFFSET 5.914000 -0.096000 0.359000
                                        CHANNELS 3 Yrotation Xrotation Zrotation
                                        JOINT LeftHandMiddle2
                                        {
                                            OFFSET 4.514000 0.000000 0.000000
                                            CHANNELS 3 Yrotation Xrotation Zrotation
                                            JOINT LeftHandMiddle3
                                            {
                                                OFFSET 2.829000 0.000000 0.000000
                                                CHANNELS 3 Yrotation Xrotation Zrotation
                                                End Site
                                                {
                                                    OFFSET 2.257000 0.000000 0.000000
                                                }
                                            }
                                        }
                                    }
                                }
                                JOINT LeftInHandRing
                                {
                                    OFFSET 3.846000 0.615000 -0.147000
                                    CHANNELS 3 Yrotation Xrotation Zrotation
                                    JOINT LeftHandRing1
                                    {
                                        OFFSET 5.297000 -0.025000 -0.547000
                                        CHANNELS 3 Yrotation Xrotation Zrotation
                                        JOINT LeftHandRing2
                                        {
                                            OFFSET 3.934000 0.000000 0.000000
                                            CHANNELS 3 Yrotation Xrotation Zrotation
                                            JOINT LeftHandRing3
                                            {
                                                OFFSET 2.729000 0.000000 0.000000
                                                CHANNELS 3 Yrotation Xrotation Zrotation
                                                End Site
                                                {
                                                    OFFSET 2.122000 0.000000 0.000000
                                                }
                                            }
                                        }
                                    }
                                }
                                JOINT LeftInHandPinky
                                {
                                    OFFSET 3.613000 0.537000 -1.374000
                                    CHANNELS 3 Yrotation Xrotation Zrotation
                                    JOINT LeftHandPinky1
                                    {
                                        OFFSET 4.733000 -0.025000 -1.246000
                                        CHANNELS 3 Yrotation Xrotation Zrotation
                                        JOINT LeftHandPinky2
                                        {
                                            OFFSET 3.151000 0.000000 0.000000
                                            CHANNELS 3 Yrotation Xrotation Zrotation
                                            JOINT LeftHandPinky3
                                            {
                                                OFFSET 1.991000 0.000000 0.000000
                                                CHANNELS 3 Yrotation Xrotation Zrotation
                                                End Site
                                                {
                                                    OFFSET 1.880000 0.000000 0.000000
                                                }
                                            }
                                        }
                                    }
                                }
                            }
                        }
                    }
                }
            }
        }
    }
}
MOTION
Frames: 4
Frame Time: 0.016667
0.000000 97.119995 0.000000 0.000000 0.000000 0.000000 0.000000 0.000000 0.000000 0.000000 0.000000 0.000000 0.000000 0.000000 0.000000 0.000000 0.000000 0.000000 0.000000 0.000000 0.000000 0.000000 0.000000 0.000000 0.000000 0.000000 0.000000 0.000000 0.000000 0.000000 0.000000 0.000000 0.000000 0.000000 0.000000 0.000000 0.000000 0.000000 0.000000 0.000000 0.000000 0.000000 0.000000 0.000000 0.000000 0.000000 0.000000 0.000000 0.000000 0.000000 0.000000 0.000000 0.000000 0.000000 0.000000 0.000000 0.000000 0.000000 0.000000 0.000000 0.000000 0.000000 0.000000 0.000000 0.000000 0.000000 0.000000 0.000000 0.000000 0.000000 0.000000 0.000000 0.000000 0.000000 0.000000 0.000000 0.000000 0.000000 0.000000 0.000000 0.000000 0.000000 0.000000 0.000000 0.000000 0.000000 0.000000 0.000000 0.000000 0.000000 0.000000 0.000000 0.000000 0.000000 0.000000 0.000000 0.000000 0.000000 0.000000 0.000000 0.000000 0.000000 0.000000 0.000000 0.000000 0.000000 0.000000 0.000000 0.000000 0.000000 0.000000 0.000000 0.000000 0.000000 0.000000 0.000000 0.000000 0.000000 0.000000 0.000000 0.000000 0.000000 0.000000 0.000000 0.000000 0.000000 0.000000 0.000000 0.000000 0.000000 0.000000 0.000000 0.000000 0.000000 0.000000 0.000000 0.000000 0.000000 0.000000 0.000000 0.000000 0.000000 0.000000 0.000000 0.000000 0.000000 0.000000 0.000000 0.000000 0.000000 0.000000 0.000000 0.000000 0.000000 0.000000 0.000000 0.000000 0.000000 0.000000 0.000000 0.000000 0.000000 0.000000 0.000000 0.000000 0.000000 0.000000 0.000000 0.000000 0.000000 0.000000 0.000000 0.000000 0.000000 0.000000 0.000000 0.000000 0.000000 0.000000 0.000000
-182.114761 5.050003 281.609863 112.429337 -175.517960 -179.928787 164.991638 168.558899 178.008041 35.239326 -2.460419 -3.790511 176.130188 -174.924408 -174.367798 146.303528 177.634521 177.566971 20.136625 8.663004 -0.895711 60.527321 -7.865146 -3.210752 176.367783 175.950729 -179.583847 176.368454 175.999481 -179.132050 162.900116 176.830811 179.900925 0.000000 -1.378237 -0.542384 180.000000 -178.392059 179.438248 3.022105 -1.167100 -0.392156 3.771248 -7.954749 7.086348 24.523685 6.482327 80.914635 13.127558 2.678905 3.192861 176.197510 179.770340 169.516541 25.799690 59.046158 -9.321609 180.000000 180.000000 -145.914001 180.000000 -180.000000 -167.457855 0.000000 -0.000000 0.000000 15.000000 0.000002 25.360153 180.000000 -180.000000 -159.250778 180.000000 -180.000000 -165.475555 0.000000 -0.000000 0.000000 180.000000 -179.999985 -152.110779 180.000000 -180.000000 -148.693069 180.000000 -180.000000 -159.149582 0.000000 -0.000000 0.000000 170.000000 179.999985 -151.745712 0.000000 0.000002 33.834686 0.000003 -0.000001 22.533895 0.000000 -0.000000 0.000000 160.000015 -180.000000 -158.092850 0.000001 -0.000002 32.860710 0.000003 -0.000002 21.885237 2.885852 -6.269125 -9.616062 144.900085 171.012924 103.919556 164.111603 -176.448639 177.826172 1.981888 -32.487518 16.114851 117.326500 120.703499 155.776199 180.000000 -180.000000 143.356033 180.000000 -180.000000 166.217957 0.000000 -0.000000 0.000000 165.000015 179.999985 139.728851 0.000000 0.000000 -32.949116 180.000000 180.000000 156.823944 0.000000 -0.000000 0.000000 180.000000 -180.000000 141.984436 0.000001 -0.000002 -54.193825 180.000000 -180.000000 143.348160 0.000000 -0.000000 0.000000 9.999998 0.000001 -32.527512 0.000001 -0.000002 -48.791256 0.000000 -0.000000 -32.494980 0.000000 -0.000000 0.000000 20.000002 -0.000001 -35.221035 180.000000 -179.999985 127.168434 180.000000 -180.000000 144.814194
-182.121567 5.047462 281.609131 112.410088 -175.563126 -179.910782 165.009018 168.583176 178.077438 35.321400 -2.337192 -3.832016 176.048950 -174.830139 -174.397385 146.334122 177.684372 177.621094 20.110741 8.766298 -0.891791 60.534702 -7.854123 -3.318117 176.369934 175.956436 -179.583572 176.370605 176.005112 -179.131943 162.910492 176.834549 179.903397 0.000002 -1.379322 -0.541228 180.000000 -178.390778 179.439438 2.995548 -1.168256 -0.390972 3.760411 -7.952147 7.081135 24.557791 6.494272 80.907433 13.156080 2.690320 3.203377 176.197540 179.745102 169.504944 25.786076 58.994740 -9.346872 0.000000 0.000000 34.089848 0.000001 -0.000001 12.544565 0.000000 -0.000000 0.000000 15.000006 0.000000 25.371962 0.000000 -0.000000 20.758877 0.000000 0.000002 14.531216 0.000000 -0.000000 0.000000 0.000000 0.000001 27.889914 0.000002 0.000000 31.311014 180.000000 -180.000000 -159.146866 0.000000 -0.000000 0.000000 170.000000 179.999985 -151.742905 0.000003 -0.000001 33.857353 0.000003 -0.000001 22.548990 0.000000 -0.000000 0.000000 160.000015 180.000000 -158.098373 0.000000 0.000002 32.852432 180.000000 180.000000 -158.120285 2.862007 -6.277462 -9.602828 144.837662 170.988678 103.901321 164.124344 -176.453079 177.835312 1.930603 -32.477943 16.112501 117.279922 120.647629 155.702682 180.000000 -180.000000 143.360474 180.000000 180.000000 166.219284 0.000000 -0.000000 0.000000 165.000000 -180.000000 139.914337 0.000000 0.000000 -32.797348 179.999985 -179.999985 156.961411 0.000000 -0.000000 0.000000 0.000003 -0.000003 -35.687267 0.000001 -0.000002 -53.530880 180.000000 -180.000000 144.348419 0.000000 -0.000000 0.000000 10.000001 0.000002 -32.285275 180.000000 180.000000 131.572113 180.000000 180.000000 147.747025 0.000000 -0.000000 0.000000 20.000002 -0.000003 -35.082653 0.000002 0.000003 -52.623981 0.000004 -0.000001 -35.047573
-182.128281 5.045123 281.608276 112.391136 -175.605530 -179.891876 165.025864 168.599396 178.158859 35.401249 -2.221404 -3.890271 175.970657 -174.743439 -174.423721 146.385330 177.733139 177.681641 20.068777 8.880195 -0.892963 60.542606 -7.844058 -3.432643 176.371597 175.959778 -179.583466 176.372269 176.008408 -179.131989 162.918427 176.836807 179.904846 0.000003 -1.379876 -0.541388 180.000000 -178.390137 179.439270 2.970876 -1.168898 -0.390592 3.752619 -7.954227 7.073469 24.577660 6.498610 80.902962 13.178482 2.704527 3.218480 176.209854 179.744568 169.503845 25.743280 58.973377 -9.386339 0.000000 -0.000001 34.089909 0.000000 -0.000000 12.545418 0.000002 -0.000000 0.000000 15.000004 0.000001 25.366619 0.000003 -0.000001 20.754505 0.000000 -0.000000 14.528152 0.000002 -0.000000 0.000000 0.000004 0.000002 27.890709 0.000003 -0.000001 31.315865 0.000003 -0.000001 20.856358 0.000002 -0.000000 0.000000 170.000000 -180.000000 -151.743011 180.000000 180.000000 -146.143372 180.000000 179.999985 -157.451477 0.000002 -0.000000 0.000000 160.000015 180.000000 -158.085159 0.000002 0.000000 32.872269 0.000007 -0.000000 21.892933 2.842075 -6.290345 -9.593834 144.778976 170.963348 103.881149 164.133987 -176.451599 177.849869 1.883628 -32.428452 16.098005 117.385490 120.655060 155.812790 180.000000 179.999985 143.361084 0.000002 -0.000003 -13.781750 0.000000 -0.000000 0.000000 165.000000 180.000000 140.023758 180.000000 180.000000 147.292160 180.000000 -180.000000 157.042374 0.000000 -0.000000 0.000000 180.000000 180.000000 146.160889 180.000000 -179.999985 129.241333 0.000000 0.000000 -33.805271 0.000000 -0.000000 0.000000 9.999997 -0.000001 -31.659744 180.000000 -180.000000 132.510391 180.000000 180.000000 148.371933 0.000000 -0.000000 0.000000 20.000000 0.000001 -34.855919 180.000000 -180.000000 127.716133 180.000000 179.999985 145.178970
